<?xml version="1.0" encoding="utf-8"?><!-- Uploaded to: SVG Repo, www.svgrepo.com, Generator: SVG Repo Mixer Tools -->
<svg width="800px" height="800px" viewBox="0 0 24 24" fill="none" xmlns="http://www.w3.org/2000/svg">
<path d="M4 17.5L3 12L12 9L21 12L20 17.5M5 11.3333V7C5 5.89543 5.89543 5 7 5H17C18.1046 5 19 5.89543 19 7V11.3333M10 5V3C10 2.44772 10.4477 2 11 2H13C13.5523 2 14 2.44772 14 3V5M2 21C3 22 6 22 8 20C10 22 14 22 16 20C18 22 21 22 22 21" stroke="#000000" stroke-width="2" stroke-linecap="round" stroke-linejoin="round"/>
</svg>