<?xml version="1.0" encoding="utf-8"?><!-- Uploaded to: SVG Repo, www.svgrepo.com, Generator: SVG Repo Mixer Tools -->
<svg width="800px" height="800px" viewBox="0 0 24 24" fill="none" xmlns="http://www.w3.org/2000/svg">
<path d="M8 14V15M16 14V15M5 11H12M19 11H12M6 21L8 18M16 18L18 21M12 6V11M12 6H5M12 6H19M5 6V16C5 17.1046 5.89543 18 7 18H17C18.1046 18 19 17.1046 19 16V6M5 6V6C5 4.34315 6.34315 3 8 3H16C17.6569 3 19 4.34315 19 6V6" stroke="#000000" stroke-width="2" stroke-linecap="round" stroke-linejoin="round"/>
</svg>